<?xml version="1.0" standalone="no"?>
<svg xmlns:xlink="http://www.w3.org/1999/xlink" id="wave" style="transform:rotate(0deg); transition: 0.3s" viewBox="0 0 1440 430" version="1.1" xmlns="http://www.w3.org/2000/svg"><defs><linearGradient id="sw-gradient-0" x1="0" x2="0" y1="1" y2="0"><stop stop-color="rgba(62, 243, 243, 1)" offset="0%"/><stop stop-color="rgba(244.043, 244.043, 244.043, 1)" offset="100%"/></linearGradient></defs><path style="transform:translate(0, 0px); opacity:1" fill="url(#sw-gradient-0)" d="M0,0L26.7,7.2C53.3,14,107,29,160,71.7C213.3,115,267,186,320,207.8C373.3,229,427,201,480,164.8C533.3,129,587,86,640,93.2C693.3,100,747,158,800,172C853.3,186,907,158,960,186.3C1013.3,215,1067,301,1120,293.8C1173.3,287,1227,186,1280,157.7C1333.3,129,1387,172,1440,186.3C1493.3,201,1547,186,1600,186.3C1653.3,186,1707,201,1760,172C1813.3,143,1867,72,1920,100.3C1973.3,129,2027,258,2080,265.2C2133.3,272,2187,158,2240,150.5C2293.3,143,2347,244,2400,293.8C2453.3,344,2507,344,2560,344C2613.3,344,2667,344,2720,351.2C2773.3,358,2827,373,2880,379.8C2933.3,387,2987,387,3040,344C3093.3,301,3147,215,3200,179.2C3253.3,143,3307,158,3360,179.2C3413.3,201,3467,229,3520,236.5C3573.3,244,3627,229,3680,236.5C3733.3,244,3787,272,3813,286.7L3840,301L3840,430L3813.3,430C3786.7,430,3733,430,3680,430C3626.7,430,3573,430,3520,430C3466.7,430,3413,430,3360,430C3306.7,430,3253,430,3200,430C3146.7,430,3093,430,3040,430C2986.7,430,2933,430,2880,430C2826.7,430,2773,430,2720,430C2666.7,430,2613,430,2560,430C2506.7,430,2453,430,2400,430C2346.7,430,2293,430,2240,430C2186.7,430,2133,430,2080,430C2026.7,430,1973,430,1920,430C1866.7,430,1813,430,1760,430C1706.7,430,1653,430,1600,430C1546.7,430,1493,430,1440,430C1386.7,430,1333,430,1280,430C1226.7,430,1173,430,1120,430C1066.7,430,1013,430,960,430C906.7,430,853,430,800,430C746.7,430,693,430,640,430C586.7,430,533,430,480,430C426.7,430,373,430,320,430C266.7,430,213,430,160,430C106.7,430,53,430,27,430L0,430Z"/></svg>